<?xml version="1.0" encoding="iso-8859-1"?>
<!-- Uploaded to: SVG Repo, www.svgrepo.com, Generator: SVG Repo Mixer Tools -->
<!DOCTYPE svg PUBLIC "-//W3C//DTD SVG 1.1//EN" "http://www.w3.org/Graphics/SVG/1.1/DTD/svg11.dtd">
<svg fill="#000000" version="1.1" id="Capa_1" xmlns="http://www.w3.org/2000/svg" xmlns:xlink="http://www.w3.org/1999/xlink" 
	 width="800px" height="800px" viewBox="0 0 476.019 476.018"
	 xml:space="preserve">
<g>
	<g id="Layer_3_44_">
		<g>
			<path d="M131.65,284.038c-24.558,0-44.539,19.979-44.539,44.539c0,24.562,19.981,44.541,44.539,44.541
				c24.56,0,44.541-19.979,44.541-44.541C176.191,304.018,156.21,284.038,131.65,284.038z M131.65,351.961
				c-12.893,0-23.381-10.49-23.381-23.385c0-12.893,10.489-23.383,23.381-23.383c12.894,0,23.384,10.49,23.384,23.383
				C155.034,341.471,144.544,351.961,131.65,351.961z"/>
			<path d="M378.611,283.427c-24.559,0-44.541,19.981-44.541,44.54c0,24.561,19.981,44.541,44.541,44.541
				c24.562,0,44.541-19.98,44.541-44.541C423.152,303.409,403.173,283.427,378.611,283.427z M378.611,351.352
				c-12.892,0-23.383-10.489-23.383-23.385c0-12.895,10.491-23.383,23.383-23.383c12.896,0,23.385,10.488,23.385,23.383
				C401.996,340.863,391.506,351.352,378.611,351.352z"/>
			<path d="M468.677,221.537l-291.553-0.181V115.37c0-11.563-7.249-12.466-11.553-12.468l-8.593-0.001
				c-28.888,0-62.601,23.223-100.2,69.021c-15.206,18.522-26.543,34.851-34.851,47.604C-18.521,274.581,1.24,326.12,46.632,326.12
				c3.709,0,12.247,0.215,31.385,0.297c1.14-28.605,24.754-51.528,53.633-51.528c28.891,0,52.512,22.94,53.635,51.56
				c57.798,0,122.4,0,139.369,0c0.812-29.07,24.694-52.474,53.956-52.474c29.213,0,53.063,23.321,53.953,52.321
				C499.969,322.013,468.903,221.871,468.677,221.537z M145.895,247.286h-19.326c-2.512,0-4.547-2.037-4.547-4.547
				c0-2.513,2.036-4.548,4.547-4.548h19.326c2.511,0,4.547,2.035,4.547,4.548C150.442,245.249,148.406,247.286,145.895,247.286z
				 M158.452,221.344l-113.545-0.071c28.165-41.066,75.468-98.244,112.07-98.244h1.475V221.344z"/>
		</g>
	</g>
</g>
</svg>