<?xml version="1.0" encoding="iso-8859-1"?>
<!-- Uploaded to: SVG Repo, www.svgrepo.com, Generator: SVG Repo Mixer Tools -->
<!DOCTYPE svg PUBLIC "-//W3C//DTD SVG 1.1//EN" "http://www.w3.org/Graphics/SVG/1.1/DTD/svg11.dtd">
<svg fill="currentColor" version="1.1" id="Capa_1" xmlns="http://www.w3.org/2000/svg" xmlns:xlink="http://www.w3.org/1999/xlink" 
	 width="800px" height="800px" viewBox="0 0 475.129 475.128"
	 xml:space="preserve">
<g>
	<g id="Layer_3_43_">
		<g>
			<path d="M374.968,272.238c-25.286,0-45.859,20.572-45.859,45.858c0,25.287,20.573,45.859,45.859,45.859
				c25.288,0,45.86-20.572,45.86-45.859C420.828,292.81,400.256,272.238,374.968,272.238z M374.968,342.172
				c-13.274,0-24.076-10.8-24.076-24.076c0-13.274,10.802-24.076,24.076-24.076c13.276,0,24.076,10.802,24.076,24.076
				C399.044,331.373,388.244,342.172,374.968,342.172z"/>
			<path d="M104.304,272.238c-25.287,0-45.859,20.572-45.859,45.858c0,25.287,20.572,45.859,45.859,45.859
				c25.288,0,45.859-20.572,45.859-45.859C150.163,292.81,129.592,272.238,104.304,272.238z M104.304,342.172
				c-13.274,0-24.075-10.8-24.075-24.076c0-13.274,10.801-24.076,24.075-24.076c13.276,0,24.075,10.802,24.075,24.076
				C128.379,331.373,117.58,342.172,104.304,342.172z"/>
			<path d="M458.469,208.828l-68.893-0.043l-69.607-53.988c-1.687-1.307-3.758-2.017-5.892-2.017h-43.346v-16.523
				c0-5.309-4.304-9.612-9.611-9.612c-5.309,0-9.612,4.304-9.612,9.612v72.439l-14.794-0.009V121.58c0-2.112-0.689-4.06-1.845-5.646
				c-1.843-2.86-5.05-4.759-8.705-4.76c-3.245-0.001-92.869-0.001-95.51-0.001c-61.422,0-104.306,83.126-112.794,100.955
				c-34.055,61.549-16.695,104.379,29.135,104.379c1.786,0,2.231,0.01,2.438,0.01c1.173-29.451,25.408-52.758,55.143-52.758
				c29.746,0,54.067,23.62,55.223,53.087c59.51,0,142.145,0,159.616,0c0.834-29.933,25.424-54.026,55.553-54.026
				c30.078,0,54.635,24.01,55.55,53.869C499.917,312.281,470.76,209.173,458.469,208.828z M43.052,208.565
				c13.877-25.192,45.16-73.19,83.468-76.476v76.528L43.052,208.565z M114.251,236.303H94.354c-2.586,0-4.682-2.097-4.682-4.683
				c0-2.586,2.096-4.682,4.682-4.682h19.897c2.587,0,4.683,2.096,4.683,4.682S116.839,236.303,114.251,236.303z M145.744,208.63
				v-76.733c20.239,0,55.438,0,71.746,0.001v76.777L145.744,208.63z M270.733,208.709v-36.705h40.054l47.396,36.761L270.733,208.709
				z"/>
		</g>
	</g>
</g>
</svg>